<svg width="120" height="121" viewBox="0 0 120 121" fill="none" xmlns="http://www.w3.org/2000/svg">
<g clip-path="url(#clip0_2_33)">
<path d="M91.6992 0.770264H28.0712C12.5679 0.770264 6.10352e-05 13.3381 6.10352e-05 28.8414V92.4694C6.10352e-05 107.973 12.5679 120.541 28.0712 120.541H91.6992C107.202 120.541 119.77 107.973 119.77 92.4694V28.8414C119.77 13.3381 107.202 0.770264 91.6992 0.770264Z" fill="#394AAB"/>
<path d="M62.6928 16.2094C79.1345 16.2094 93.4901 25.1389 101.179 38.4118L101.104 38.284L81.7587 49.4227C77.9476 42.9694 70.9602 38.6144 62.9449 38.5248L62.6928 38.5233C50.4697 38.5233 40.5603 48.4322 40.5603 60.6549C40.5603 64.6522 41.626 68.3992 43.4792 71.6354C47.2943 78.2953 54.4656 82.7876 62.6928 82.7876C70.97 82.7876 78.1824 78.2382 81.9781 71.5072L81.886 71.6686L101.202 82.8587C93.5972 96.0194 79.4386 104.921 63.1878 105.099L62.6928 105.101C46.1986 105.101 31.8025 96.1167 24.1328 82.7736C20.3887 76.2596 18.2463 68.708 18.2463 60.6549C18.2463 36.1087 38.1452 16.2094 62.6928 16.2094Z" fill="white"/>
</g>
<defs>
<clipPath id="clip0_2_33">
<rect width="119.77" height="119.77" fill="white" transform="translate(6.10352e-05 0.770264)"/>
</clipPath>
</defs>
</svg>
