<svg width="121" height="121" viewBox="0 0 121 121" fill="none" xmlns="http://www.w3.org/2000/svg">
<g clip-path="url(#clip0_2_28)">
<path d="M92.4694 0.770264H28.8415C13.3382 0.770264 0.770325 13.3381 0.770325 28.8414V92.4694C0.770325 107.973 13.3382 120.541 28.8415 120.541H92.4694C107.973 120.541 120.541 107.973 120.541 92.4694V28.8414C120.541 13.3381 107.973 0.770264 92.4694 0.770264Z" fill="#00599C"/>
<path d="M52.5892 99.2612C31.2394 99.2612 13.8702 81.8921 13.8702 60.5426C13.8702 39.1928 31.2394 21.8236 52.5892 21.8236C66.3651 21.8236 79.2138 29.2371 86.1193 41.1709L69.3627 50.8674C65.9066 44.8939 59.4788 41.183 52.5892 41.183C41.914 41.183 33.2296 49.8676 33.2296 60.5426C33.2296 71.2172 41.914 79.9019 52.5892 79.9019C59.4793 79.9019 65.9071 76.1909 69.3636 70.2164L86.1202 79.9127C79.2147 91.8476 66.3661 99.2612 52.5892 99.2612Z" fill="white"/>
<path d="M91.3078 58.3915H87.0054V54.0891H82.704V58.3915H78.4016V62.6934H82.704V66.9958H87.0054V62.6934H91.3078V58.3915Z" fill="white"/>
<path d="M107.441 58.3915H103.138V54.0891H98.8369V58.3915H94.5345V62.6934H98.8369V66.9958H103.138V62.6934H107.441V58.3915Z" fill="white"/>
</g>
<defs>
<clipPath id="clip0_2_28">
<rect width="119.77" height="119.77" fill="white" transform="translate(0.770325 0.770264)"/>
</clipPath>
</defs>
</svg>
