<svg width="121" height="120" viewBox="0 0 121 120" fill="none" xmlns="http://www.w3.org/2000/svg">
<g clip-path="url(#clip0_2_100)">
<path d="M92.4694 0H28.8414C13.3381 0 0.770264 12.5679 0.770264 28.0712V91.6991C0.770264 107.202 13.3381 119.77 28.8414 119.77H92.4694C107.973 119.77 120.541 107.202 120.541 91.6991V28.0712C120.541 12.5679 107.973 0 92.4694 0Z" fill="#0277BD"/>
<path d="M25.9186 48.0255L27.258 62.9697H60.7003V48.0255H25.9186Z" fill="#EBEBEB"/>
<path d="M60.6998 17.7784H60.6484H23.2272L24.5856 32.7227H60.6998V17.7784Z" fill="#EBEBEB"/>
<path d="M60.6998 102.385V86.8372L60.6343 86.8545L43.9911 82.3608L42.9272 70.4418H34.8398H27.9256L30.0192 93.9065L60.6311 102.405L60.6998 102.385Z" fill="#EBEBEB"/>
<path d="M79.0504 62.9697L77.3156 82.351L60.6484 86.8499V102.397L91.2848 93.9065L91.5093 91.3815L95.021 52.0388L95.3855 48.0256L98.0836 17.7784H60.6484V32.7227H81.706L80.3464 48.0256H60.6484V62.9697H79.0504Z" fill="white"/>
</g>
<defs>
<clipPath id="clip0_2_100">
<rect width="119.77" height="119.77" fill="white" transform="translate(0.770264)"/>
</clipPath>
</defs>
</svg>
