<svg width="121" height="121" viewBox="0 0 121 121" fill="none" xmlns="http://www.w3.org/2000/svg">
<g clip-path="url(#clip0_2_36)">
<path d="M92.01 0.770264H28.382C12.8787 0.770264 0.310852 13.3381 0.310852 28.8414V92.4694C0.310852 107.973 12.8787 120.541 28.382 120.541H92.01C107.513 120.541 120.081 107.973 120.081 92.4694V28.8414C120.081 13.3381 107.513 0.770264 92.01 0.770264Z" fill="#242938"/>
<path d="M41.2243 41.4758L35.7794 36.0282L35.8004 75.3754L35.8662 77.2127C35.8925 78.081 36.057 79.0546 36.3202 80.068L79.4467 95.2788L90.2363 90.5025L90.2457 90.4866L41.2217 41.4758H41.2243Z" fill="#00C4B3"/>
<path d="M36.3215 80.068H36.3254C36.3215 80.0521 36.3149 80.0339 36.307 80.0151C36.3162 80.0353 36.3162 80.0549 36.3202 80.068H36.3215ZM90.226 90.5025L79.436 95.2788L36.3162 80.068C37.1386 83.2312 38.9637 86.7864 40.9242 88.7261L54.9907 102.723L86.2919 102.762L90.2129 90.5025H90.226Z" fill="#22D3C5"/>
<path d="M35.9267 36.0295L19.159 61.353C17.7669 62.8398 18.4617 65.908 20.7025 68.1687L30.3818 77.9271L36.4662 80.0718C36.2031 79.0612 36.0372 78.0979 36.0123 77.2165L35.9465 75.3797L35.9267 36.0322V36.0295Z" fill="#0075C9"/>
<path d="M79.8018 36.5361C78.7889 36.2795 77.8176 36.1177 76.9428 36.0926L74.9979 36.0216L35.7794 36.0308L90.2443 90.488L95.029 79.6979L79.8046 36.5387L79.8018 36.5361Z" fill="#0075C9"/>
<path d="M79.7517 36.5269C79.7691 36.5335 79.7873 36.5374 79.8018 36.5401V36.5348C79.785 36.5309 79.7691 36.5309 79.7517 36.5243V36.5269ZM88.4562 41.156C86.4757 39.1626 82.9692 37.3401 79.8018 36.5401L95.0262 79.6956L90.2363 90.4852L101.924 86.7508L101.95 54.7076L88.4547 41.1547L88.4562 41.156Z" fill="#00A8E1"/>
<path d="M77.6675 30.4899L67.9305 20.8054C65.6591 18.5724 62.5909 17.875 61.1172 19.2645L35.7951 36.0283L75.0138 36.0191L76.9582 36.0901C77.8336 36.1164 78.8058 36.277 79.8177 36.5336L77.6703 30.4873L77.6675 30.4899Z" fill="#00C4B3"/>
</g>
<defs>
<clipPath id="clip0_2_36">
<rect width="119.77" height="119.77" fill="white" transform="translate(0.310852 0.770264)"/>
</clipPath>
</defs>
</svg>
