<svg width="121" height="121" viewBox="0 0 121 121" fill="none" xmlns="http://www.w3.org/2000/svg">
<g clip-path="url(#clip0_2_120)">
<path d="M92.2397 0.770264H28.6117C13.1085 0.770264 0.540588 13.3381 0.540588 28.8414V92.4694C0.540588 107.973 13.1085 120.541 28.6117 120.541H92.2397C107.743 120.541 120.311 107.973 120.311 92.4694V28.8414C120.311 13.3381 107.743 0.770264 92.2397 0.770264Z" fill="#242938"/>
<path d="M68.3483 18.5775L94.4428 18.5487L50.6635 62.3051L39.2541 73.651L26.2725 60.6536L68.3483 18.5775ZM68.1055 57.6467C68.4442 57.1994 69.0674 57.4202 69.5404 57.3627L94.4203 57.3688L71.7449 80.0222L58.6961 67.0533L68.1055 57.6467Z" fill="#44D1FD"/>
<path d="M45.689 80.0441L58.6961 67.0532L71.7449 80.0221L71.7992 80.0796L58.6993 93.0579L45.689 80.0441Z" fill="#1FBCFD"/>
<path d="M58.6993 93.0579L71.7992 80.0797L94.4297 102.733C85.9054 102.752 77.384 102.726 68.863 102.745C68.3773 102.854 68.077 102.41 67.7668 102.135L58.6993 93.0579Z" fill="#08589C"/>
</g>
<defs>
<clipPath id="clip0_2_120">
<rect width="119.77" height="119.77" fill="white" transform="translate(0.540588 0.770264)"/>
</clipPath>
</defs>
</svg>
