<svg width="120" height="120" viewBox="0 0 120 120" fill="none" xmlns="http://www.w3.org/2000/svg">
<g clip-path="url(#clip0_2_55)">
<path d="M91.6991 0H28.0712C12.5679 0 0 12.5679 0 28.0712V91.6991C0 107.202 12.5679 119.77 28.0712 119.77H91.6991C107.202 119.77 119.77 107.202 119.77 91.6991V28.0712C119.77 12.5679 107.202 0 91.6991 0Z" fill="#E14E1D"/>
<path d="M22.4569 17.7784L26.485 62.9697H78.2811L76.543 82.3529L59.8659 86.862L43.2202 82.3594L42.1073 69.9136H27.1068L29.2518 93.9055L59.8622 102.407L90.5112 93.9055L94.6204 48.0275H40.153L38.7854 32.7239H95.9289H95.9748L97.3133 17.7784H22.4569Z" fill="white"/>
<path d="M59.8851 17.7784H22.4569L26.485 62.9697H59.8851V48.0275H40.153L38.7854 32.7239H59.8851V17.7784Z" fill="#EBEBEB"/>
<path d="M59.8851 86.8555L59.8659 86.862L43.2202 82.3594L42.1073 69.9136H27.1068L29.2518 93.9055L59.8622 102.407L59.8851 102.401V86.8555Z" fill="#EBEBEB"/>
</g>
<defs>
<clipPath id="clip0_2_55">
<rect width="119.77" height="119.77" fill="white"/>
</clipPath>
</defs>
</svg>
