<svg width="121" height="120" viewBox="0 0 121 120" fill="none" xmlns="http://www.w3.org/2000/svg">
<g clip-path="url(#clip0_2_106)">
<path d="M92.2396 0H28.6117C13.1084 0 0.540527 12.5679 0.540527 28.0712V91.6991C0.540527 107.202 13.1084 119.77 28.6117 119.77H92.2396C107.743 119.77 120.311 107.202 120.311 91.6991V28.0712C120.311 12.5679 107.743 0 92.2396 0Z" fill="#F0DB4F"/>
<path d="M32.0325 100.089L41.1982 94.5417C42.9664 97.6768 44.5749 100.33 48.4332 100.33C52.1316 100.33 54.4633 98.8829 54.4633 93.2556V54.9862H65.7189V93.4147C65.7189 105.072 58.8855 110.379 48.9155 110.379C39.9119 110.379 34.6853 105.715 32.0323 100.088" fill="#323330"/>
<path d="M71.8324 98.8826L80.9967 93.5766C83.4094 97.5164 86.5449 100.411 92.0918 100.411C96.7558 100.411 99.7295 98.0788 99.7295 94.8628C99.7295 91.0039 96.6744 89.6369 91.529 87.3865L88.7158 86.1799C80.5953 82.7234 75.2084 78.3817 75.2084 69.2165C75.2084 60.7746 81.6404 54.3425 91.6904 54.3425C98.8457 54.3425 103.991 56.8352 107.689 63.3473L98.9257 68.9751C96.9958 65.5181 94.9064 64.1515 91.6904 64.1515C88.3939 64.1515 86.3035 66.2419 86.3035 68.9751C86.3035 72.3516 88.3939 73.7186 93.2174 75.8095L96.0311 77.0151C105.598 81.1159 110.985 85.2957 110.985 94.7018C110.985 104.833 103.026 110.38 92.3332 110.38C81.8818 110.38 75.1284 105.395 71.8324 98.8826Z" fill="#323330"/>
</g>
<defs>
<clipPath id="clip0_2_106">
<rect width="119.77" height="119.77" fill="white" transform="translate(0.540527)"/>
</clipPath>
</defs>
</svg>
