<svg width="120" height="121" viewBox="0 0 120 121" fill="none" xmlns="http://www.w3.org/2000/svg">
<g clip-path="url(#clip0_2_153)">
<path d="M91.6992 0.540527H28.0712C12.5679 0.540527 6.10352e-05 13.1084 6.10352e-05 28.6117V92.2396C6.10352e-05 107.743 12.5679 120.311 28.0712 120.311H91.6992C107.202 120.311 119.77 107.743 119.77 92.2396V28.6117C119.77 13.1084 107.202 0.540527 91.6992 0.540527Z" fill="#242938"/>
<path d="M59.5479 14.1083C35.7939 14.1083 37.2773 24.4095 37.2773 24.4095L37.3037 35.0814H59.9718V38.2856H28.3001C28.3001 38.2856 13.0999 36.5617 13.0999 60.5295C13.0999 84.4976 26.367 83.648 26.367 83.648H34.2849V72.5258C34.2849 72.5258 33.8581 59.2589 47.3402 59.2589H69.8224C69.8224 59.2589 82.4539 59.4628 82.4539 47.0509V26.5279C82.4539 26.5279 84.3717 14.1083 59.5479 14.1083ZM47.0487 21.2847C49.3043 21.2847 51.127 23.1075 51.127 25.3628C51.127 27.618 49.3043 29.4409 47.0487 29.4409C44.7935 29.4409 42.9707 27.618 42.9707 25.3628C42.9707 23.1075 44.7935 21.2847 47.0487 21.2847Z" fill="url(#paint0_linear_2_153)"/>
<path d="M60.2225 107.191C83.9763 107.191 82.4932 96.8905 82.4932 96.8905L82.4666 86.2184H59.7986V83.014H91.4704C91.4704 83.014 106.67 84.7381 106.67 60.77C106.67 36.802 93.4036 37.652 93.4036 37.652H85.4856V48.7742C85.4856 48.7742 85.9123 62.0411 72.4302 62.0411H49.948C49.948 62.0411 37.3163 61.8367 37.3163 74.2488V94.7716C37.3163 94.7716 35.3985 107.191 60.2225 107.191ZM72.7217 100.015C70.4661 100.015 68.6434 98.1921 68.6434 95.9371C68.6434 93.6815 70.4661 91.8588 72.7217 91.8588C74.9767 91.8588 76.7999 93.6815 76.7999 95.9371C76.7999 98.1921 74.9767 100.015 72.7217 100.015Z" fill="url(#paint1_linear_2_153)"/>
</g>
<defs>
<linearGradient id="paint0_linear_2_153" x1="22.0921" y1="22.481" x2="68.4623" y2="68.3885" gradientUnits="userSpaceOnUse">
<stop stop-color="#387EB8"/>
<stop offset="1" stop-color="#366994"/>
</linearGradient>
<linearGradient id="paint1_linear_2_153" x1="50.5543" y1="51.9598" x2="100.351" y2="99.0338" gradientUnits="userSpaceOnUse">
<stop stop-color="#FFE052"/>
<stop offset="1" stop-color="#FFC331"/>
</linearGradient>
<clipPath id="clip0_2_153">
<rect width="119.77" height="119.77" fill="white" transform="translate(6.10352e-05 0.540527)"/>
</clipPath>
</defs>
</svg>
