<svg width="121" height="121" viewBox="0 0 121 121" fill="none" xmlns="http://www.w3.org/2000/svg">
<g clip-path="url(#clip0_2_63)">
<path d="M92.2397 0.540527H28.6117C13.1085 0.540527 0.540588 13.1084 0.540588 28.6117V92.2396C0.540588 107.743 13.1085 120.311 28.6117 120.311H92.2397C107.743 120.311 120.311 107.743 120.311 92.2396V28.6117C120.311 13.1084 107.743 0.540527 92.2397 0.540527Z" fill="#242938"/>
<path d="M60.4262 69.2919C65.247 69.2919 69.1545 65.3839 69.1545 60.5636C69.1545 55.7434 65.247 51.8354 60.4262 51.8354C55.6059 51.8354 51.6979 55.7434 51.6979 60.5636C51.6979 65.3839 55.6059 69.2919 60.4262 69.2919Z" fill="#00D8FF"/>
<path fill-rule="evenodd" clip-rule="evenodd" d="M60.4267 42.8173C72.1454 42.8173 83.0319 44.4988 91.2404 47.3247C101.13 50.7294 107.211 55.8903 107.211 60.5637C107.211 65.4336 100.767 70.9163 90.146 74.4351C82.1168 77.0953 71.5508 78.4839 60.4267 78.4839C49.0213 78.4839 38.2209 77.1804 30.1011 74.4056C19.828 70.8944 13.6405 65.3409 13.6405 60.5637C13.6405 55.9282 19.4463 50.8071 29.1973 47.4077C37.4362 44.5352 48.5914 42.8173 60.4248 42.8173H60.4267Z" stroke="#00D8FF" stroke-width="5"/>
<path fill-rule="evenodd" clip-rule="evenodd" d="M44.9777 51.7414C50.8324 41.59 57.7271 32.9994 64.2761 27.3003C72.166 20.4339 79.6751 17.7448 83.7229 20.0791C87.9415 22.512 89.4719 30.8338 87.2145 41.7917C85.5092 50.0763 81.4323 59.9227 75.8747 69.5595C70.1767 79.4397 63.6525 88.1445 57.1929 93.7906C49.019 100.936 41.1167 103.521 36.9785 101.135C32.9629 98.8209 31.4273 91.2319 33.3537 81.0865C34.9813 72.514 39.066 61.9925 44.9758 51.7414H44.9777Z" stroke="#00D8FF" stroke-width="5"/>
<path fill-rule="evenodd" clip-rule="evenodd" d="M44.9923 69.5853C39.1213 59.4451 35.124 49.1794 33.4555 40.6597C31.447 30.3946 32.867 22.5462 36.9115 20.2051C41.1261 17.7651 49.0999 20.5955 57.4661 28.0239C63.7915 33.6401 70.2866 42.0883 75.8602 51.7157C81.5745 61.5864 85.8573 71.5868 87.5233 80.0025C89.6314 90.6527 87.9252 98.79 83.7907 101.183C79.7794 103.506 72.4383 101.047 64.6107 94.3108C57.9971 88.6199 50.9213 79.8266 44.9923 69.5853Z" stroke="#00D8FF" stroke-width="5"/>
</g>
<defs>
<clipPath id="clip0_2_63">
<rect width="119.77" height="119.77" fill="white" transform="translate(0.540588 0.540527)"/>
</clipPath>
</defs>
</svg>
