<svg width="121" height="121" viewBox="0 0 121 121" fill="none" xmlns="http://www.w3.org/2000/svg">
<g clip-path="url(#clip0_2_117)">
<path d="M92.01 0.540527H28.382C12.8787 0.540527 0.310852 13.1084 0.310852 28.6117V92.2396C0.310852 107.743 12.8787 120.311 28.382 120.311H92.01C107.513 120.311 120.081 107.743 120.081 92.2396V28.6117C120.081 13.1084 107.513 0.540527 92.01 0.540527Z" fill="#242938"/>
<path fill-rule="evenodd" clip-rule="evenodd" d="M39.1426 52.0043C41.9493 40.7763 48.968 35.1616 60.196 35.1616C77.0387 35.1616 79.144 47.7936 87.5654 49.899C93.1801 51.303 98.0921 49.1977 102.303 43.583C99.4961 54.811 92.4774 60.4257 81.2494 60.4257C64.4067 60.4257 62.3013 47.7936 53.88 45.6883C48.2653 44.2843 43.3533 46.3897 39.1426 52.0043ZM18.0893 77.2684C20.8959 66.0404 27.9146 60.4257 39.1426 60.4257C55.9853 60.4257 58.0907 73.0577 66.512 75.163C72.1267 76.567 77.0387 74.4617 81.2494 68.847C78.4427 80.075 71.424 85.6897 60.196 85.6897C43.3533 85.6897 41.248 73.0577 32.8266 70.9523C27.212 69.5483 22.2999 71.6537 18.0893 77.2684Z" fill="url(#paint0_linear_2_117)"/>
</g>
<defs>
<linearGradient id="paint0_linear_2_117" x1="40.7801" y1="35.1616" x2="76.8048" y2="87.3272" gradientUnits="userSpaceOnUse">
<stop stop-color="#32B1C1"/>
<stop offset="1" stop-color="#14C6B7"/>
</linearGradient>
<clipPath id="clip0_2_117">
<rect width="119.77" height="119.77" fill="white" transform="translate(0.310852 0.540527)"/>
</clipPath>
</defs>
</svg>
