<svg width="120" height="121" viewBox="0 0 120 121" fill="none" xmlns="http://www.w3.org/2000/svg">
<g clip-path="url(#clip0_2_125)">
<path d="M91.6991 0.310791H28.0712C12.5679 0.310791 0 12.8787 0 28.3819V92.0099C0 107.513 12.5679 120.081 28.0712 120.081H91.6991C107.202 120.081 119.77 107.513 119.77 92.0099V28.3819C119.77 12.8787 107.202 0.310791 91.6991 0.310791Z" fill="#242938"/>
<path d="M15.774 47.1933C15.774 47.1933 13.559 45.5966 16.217 43.4646L22.4098 37.9271C22.4098 37.9271 24.1818 36.0628 26.0554 37.6871L83.2029 80.9536V101.701C83.2029 101.701 83.1753 104.959 78.9941 104.599L15.774 47.1933Z" fill="#2489CA"/>
<path d="M30.5038 60.5665L15.774 73.9578C15.774 73.9578 14.2604 75.0839 15.774 77.0962L22.6129 83.3163C22.6129 83.3163 24.2372 85.0609 26.6368 83.0763L42.2526 71.2354L30.5038 60.5665Z" fill="#1070B3"/>
<path d="M56.3641 60.6773L83.3783 40.0498L83.2029 19.4132C83.2029 19.4132 82.0492 14.9093 78.2006 17.2535L42.2527 49.971L56.3641 60.6773Z" fill="#0877B9"/>
<path d="M78.9941 104.627C80.5633 106.233 82.4646 105.707 82.4646 105.707L103.517 95.333C106.211 93.4962 105.833 91.2169 105.833 91.2169V29.27C105.833 26.5474 103.045 25.606 103.045 25.606L84.7997 16.8105C80.8126 14.3463 78.2006 17.2535 78.2006 17.2535C78.2006 17.2535 81.5598 14.8355 83.2029 19.4132V101.322C83.2029 101.886 83.0827 102.439 82.8431 102.938C82.3631 103.907 81.3203 104.811 78.8191 104.433L78.9941 104.627Z" fill="#3C99D4"/>
</g>
<defs>
<clipPath id="clip0_2_125">
<rect width="119.77" height="119.77" fill="white" transform="translate(0 0.310791)"/>
</clipPath>
</defs>
</svg>
